HIERARCHY
ROOT newVegas:Hips
{
	OFFSET 0.000000 96.479958 0.000000
	CHANNELS 6 Xposition Yposition Zposition Xrotation Yrotation Zrotation
	JOINT newVegas:Pelvis
	{
		OFFSET 0.000000 0.000000 0.000000
		CHANNELS 3 Xrotation Yrotation Zrotation
		JOINT newVegas:LeftUpLeg
		{
			OFFSET 18.735201 -5.666702 -4.541200
			CHANNELS 3 Xrotation Yrotation Zrotation
			JOINT newVegas:LeftLeg
			{
				OFFSET -0.021200 -31.938179 0.493100
				CHANNELS 3 Xrotation Yrotation Zrotation
				JOINT newVegas:LeftFoot
				{
					OFFSET 0.021200 -31.938179 -4.336299
					CHANNELS 3 Xrotation Yrotation Zrotation
					JOINT newVegas:LeftToeBase
					{
						OFFSET 0.943001 -26.722000 15.023500
						CHANNELS 3 Xrotation Yrotation Zrotation
						End Site
						{
							OFFSET 0.000000 30.670183 0.000000
						}
					}
				}
				JOINT newVegas:Left_PantLeg
				{
					OFFSET 0.663870 -9.044666 -1.108900
					CHANNELS 3 Xrotation Yrotation Zrotation
					End Site
					{
						OFFSET 1.415995 20.635357 0.000000
					}
				}
			}
		}
		JOINT newVegas:RightUpLeg
		{
			OFFSET -18.735201 -5.666702 -4.541200
			CHANNELS 3 Xrotation Yrotation Zrotation
			JOINT newVegas:RightLeg
			{
				OFFSET 0.018946 -31.938133 0.493100
				CHANNELS 3 Xrotation Yrotation Zrotation
				JOINT newVegas:RightFoot
				{
					OFFSET -0.018946 -31.938126 -4.336299
					CHANNELS 3 Xrotation Yrotation Zrotation
					JOINT newVegas:RightToeBase
					{
						OFFSET -0.943001 -26.722004 15.023500
						CHANNELS 3 Xrotation Yrotation Zrotation
						End Site
						{
							OFFSET 0.000000 30.670187 0.000000
						}
					}
				}
				JOINT newVegas:Right_PantLeg
				{
					OFFSET -0.661674 -9.044716 -1.108900
					CHANNELS 3 Xrotation Yrotation Zrotation
					End Site
					{
						OFFSET -1.415958 20.635269 0.000000
					}
				}
			}
		}
	}
	JOINT newVegas:Spine
	{
		OFFSET 0.000000 10.199997 -0.299500
		CHANNELS 3 Xrotation Yrotation Zrotation
		JOINT newVegas:Spine1
		{
			OFFSET 0.000000 11.900002 -1.516600
			CHANNELS 3 Xrotation Yrotation Zrotation
			JOINT newVegas:Spine2
			{
				OFFSET 0.000000 13.600006 -2.842500
				CHANNELS 3 Xrotation Yrotation Zrotation
				JOINT newVegas:Neck
				{
					OFFSET 0.000000 9.624100 -2.890100
					CHANNELS 3 Xrotation Yrotation Zrotation
					JOINT newVegas:Head
					{
						OFFSET 0.000000 14.068802 -1.351900
						CHANNELS 3 Xrotation Yrotation Zrotation
						JOINT newVegas:Hair_Back
						{
							OFFSET 0.000000 3.231903 -17.524799
							CHANNELS 3 Xrotation Yrotation Zrotation
							End Site
							{
								OFFSET 0.000000 19.849884 0.000000
							}
						}
						JOINT newVegas:Hair_Front
						{
							OFFSET 0.000000 31.260406 4.573800
							CHANNELS 3 Xrotation Yrotation Zrotation
							JOINT newVegas:Hair_Front1
							{
								OFFSET 0.000000 2.284103 11.993300
								CHANNELS 3 Xrotation Yrotation Zrotation
								JOINT newVegas:Hair_Front2
								{
									OFFSET 0.000000 2.284103 11.993300
									CHANNELS 3 Xrotation Yrotation Zrotation
									End Site
									{
										OFFSET 0.000000 12.208862 0.000000
									}
								}
							}
						}
						JOINT newVegas:Jowel
						{
							OFFSET 0.000000 -7.458206 6.864100
							CHANNELS 3 Xrotation Yrotation Zrotation
							End Site
							{
								OFFSET 0.000000 19.849884 0.000000
							}
						}
					}
				}
				JOINT newVegas:LeftShoulder
				{
					OFFSET 15.263000 10.923401 -0.547700
					CHANNELS 3 Xrotation Yrotation Zrotation
					JOINT newVegas:LeftArm
					{
						OFFSET 25.438599 -2.830597 -13.032500
						CHANNELS 3 Xrotation Yrotation Zrotation
						JOINT newVegas:LeftForeArm
						{
							OFFSET 29.960503 0.000000 0.000000
							CHANNELS 3 Xrotation Yrotation Zrotation
							JOINT newVegas:LeftHand
							{
								OFFSET 27.849251 0.000000 0.000000
								CHANNELS 3 Xrotation Yrotation Zrotation
								JOINT newVegas:LeftHandThumb1
								{
									OFFSET 4.487587 -3.305161 6.305391
									CHANNELS 3 Xrotation Yrotation Zrotation
									JOINT newVegas:LeftHandThumb2
									{
										OFFSET 5.480453 -3.164139 3.164143
										CHANNELS 3 Xrotation Yrotation Zrotation
										JOINT newVegas:LeftHandThumb3
										{
											OFFSET 5.159721 -2.978973 2.978967
											CHANNELS 3 Xrotation Yrotation Zrotation
											End Site
											{
												OFFSET 2.494507 5.926697 1.738678
											}
										}
									}
								}
								JOINT newVegas:LeftHandIndex1
								{
									OFFSET 18.578728 -0.527832 5.208049
									CHANNELS 3 Xrotation Yrotation Zrotation
									JOINT newVegas:LeftHandIndex2
									{
										OFFSET 3.192009 0.000000 0.000000
										CHANNELS 3 Xrotation Yrotation Zrotation
										JOINT newVegas:LeftHandIndex3
										{
											OFFSET 3.835129 0.000000 0.000000
											CHANNELS 3 Xrotation Yrotation Zrotation
											End Site
											{
												OFFSET -0.034599 3.816971 0.371180
											}
										}
									}
								}
								JOINT newVegas:LeftHandMiddle1
								{
									OFFSET 18.476105 0.000000 0.000000
									CHANNELS 3 Xrotation Yrotation Zrotation
									JOINT newVegas:LeftHandMiddle2
									{
										OFFSET 3.324875 0.000000 0.000000
										CHANNELS 3 Xrotation Yrotation Zrotation
										JOINT newVegas:LeftHandMiddle3
										{
											OFFSET 4.596550 0.000000 0.000000
											CHANNELS 3 Xrotation Yrotation Zrotation
											End Site
											{
												OFFSET 0.057701 4.578827 0.399218
											}
										}
									}
								}
								JOINT newVegas:LeftHandRing1
								{
									OFFSET 17.732719 0.121887 -4.201567
									CHANNELS 3 Xrotation Yrotation Zrotation
									JOINT newVegas:LeftHandRing2
									{
										OFFSET 2.733170 0.000000 0.000000
										CHANNELS 3 Xrotation Yrotation Zrotation
										JOINT newVegas:LeftHandRing3
										{
											OFFSET 3.178268 0.000000 0.000000
											CHANNELS 3 Xrotation Yrotation Zrotation
											End Site
											{
												OFFSET 0.119102 3.170624 0.185394
											}
										}
									}
								}
								JOINT newVegas:LeftHandPinky1
								{
									OFFSET 15.989624 -0.606689 -7.535461
									CHANNELS 3 Xrotation Yrotation Zrotation
									JOINT newVegas:LeftHandPinky2
									{
										OFFSET 2.538986 0.000000 0.000000
										CHANNELS 3 Xrotation Yrotation Zrotation
										JOINT newVegas:LeftHandPinky3
										{
											OFFSET 2.593102 0.000000 0.000000
											CHANNELS 3 Xrotation Yrotation Zrotation
											End Site
											{
												OFFSET -0.150902 2.584198 0.152708
											}
										}
									}
								}
							}
							JOINT newVegas:Left_Sleeve
							{
								OFFSET 0.267448 -0.649796 0.577675
								CHANNELS 3 Xrotation Yrotation Zrotation
								End Site
								{
									OFFSET 0.000000 15.991241 0.000000
								}
							}
							JOINT newVegas:Left_CapeC
							{
								OFFSET 15.715958 -8.608795 -6.935905
								CHANNELS 3 Xrotation Yrotation Zrotation
								JOINT newVegas:Left_CapeC1
								{
									OFFSET 0.000000 -8.688499 0.000000
									CHANNELS 3 Xrotation Yrotation Zrotation
									End Site
									{
										OFFSET 0.000000 8.688499 0.000000
									}
								}
							}
						}
						JOINT newVegas:Left_CapeB
						{
							OFFSET 26.118385 -8.608795 -7.079235
							CHANNELS 3 Xrotation Yrotation Zrotation
							JOINT newVegas:Left_CapeB1
							{
								OFFSET 0.000000 -8.688499 0.000000
								CHANNELS 3 Xrotation Yrotation Zrotation
								End Site
								{
									OFFSET 0.000000 8.688499 0.000000
								}
							}
						}
						JOINT newVegas:Left_CapeA
						{
							OFFSET 5.115639 -8.608795 -10.395809
							CHANNELS 3 Xrotation Yrotation Zrotation
							JOINT newVegas:Left_CapeA1
							{
								OFFSET 0.000000 -8.688499 0.000000
								CHANNELS 3 Xrotation Yrotation Zrotation
								End Site
								{
									OFFSET 0.000000 8.688499 0.000000
								}
							}
						}
					}
				}
				JOINT newVegas:RightShoulder
				{
					OFFSET -15.263000 10.923401 -0.547700
					CHANNELS 3 Xrotation Yrotation Zrotation
					JOINT newVegas:RightArm
					{
						OFFSET -25.438599 -2.830597 -13.032500
						CHANNELS 3 Xrotation Yrotation Zrotation
						JOINT newVegas:RightForeArm
						{
							OFFSET -29.960503 0.000000 0.000000
							CHANNELS 3 Xrotation Yrotation Zrotation
							JOINT newVegas:RightHand
							{
								OFFSET -27.849251 0.000000 0.000000
								CHANNELS 3 Xrotation Yrotation Zrotation
								JOINT newVegas:RightHandThumb1
								{
									OFFSET -4.487587 -3.305161 6.305391
									CHANNELS 3 Xrotation Yrotation Zrotation
									JOINT newVegas:RightHandThumb2
									{
										OFFSET -5.480453 -3.164139 3.164143
										CHANNELS 3 Xrotation Yrotation Zrotation
										JOINT newVegas:RightHandThumb3
										{
											OFFSET -5.159721 -2.978973 2.978967
											CHANNELS 3 Xrotation Yrotation Zrotation
											End Site
											{
												OFFSET -2.494507 5.926697 1.738678
											}
										}
									}
								}
								JOINT newVegas:RightHandIndex1
								{
									OFFSET -18.578728 -0.527832 5.208049
									CHANNELS 3 Xrotation Yrotation Zrotation
									JOINT newVegas:RightHandIndex2
									{
										OFFSET -3.192009 0.000000 0.000000
										CHANNELS 3 Xrotation Yrotation Zrotation
										JOINT newVegas:RightHandIndex3
										{
											OFFSET -3.835129 0.000000 0.000000
											CHANNELS 3 Xrotation Yrotation Zrotation
											End Site
											{
												OFFSET 0.034599 3.816971 0.371180
											}
										}
									}
								}
								JOINT newVegas:RightHandMiddle1
								{
									OFFSET -18.476105 0.000000 0.000000
									CHANNELS 3 Xrotation Yrotation Zrotation
									JOINT newVegas:RightHandMiddle2
									{
										OFFSET -3.324875 0.000000 0.000000
										CHANNELS 3 Xrotation Yrotation Zrotation
										JOINT newVegas:RightHandMiddle3
										{
											OFFSET -4.596550 0.000000 0.000000
											CHANNELS 3 Xrotation Yrotation Zrotation
											End Site
											{
												OFFSET -0.057701 4.578827 0.399218
											}
										}
									}
								}
								JOINT newVegas:RightHandRing1
								{
									OFFSET -17.732719 0.121887 -4.201567
									CHANNELS 3 Xrotation Yrotation Zrotation
									JOINT newVegas:RightHandRing2
									{
										OFFSET -2.733170 0.000000 0.000000
										CHANNELS 3 Xrotation Yrotation Zrotation
										JOINT newVegas:RightHandRing3
										{
											OFFSET -3.178268 0.000000 0.000000
											CHANNELS 3 Xrotation Yrotation Zrotation
											End Site
											{
												OFFSET -0.119102 3.170624 0.185394
											}
										}
									}
								}
								JOINT newVegas:RightHandPinky1
								{
									OFFSET -15.989624 -0.606689 -7.535461
									CHANNELS 3 Xrotation Yrotation Zrotation
									JOINT newVegas:RightHandPinky2
									{
										OFFSET -2.538986 0.000000 0.000000
										CHANNELS 3 Xrotation Yrotation Zrotation
										JOINT newVegas:RightHandPinky3
										{
											OFFSET -2.593102 0.000000 0.000000
											CHANNELS 3 Xrotation Yrotation Zrotation
											End Site
											{
												OFFSET 0.150902 2.584198 0.152708
											}
										}
									}
								}
							}
							JOINT newVegas:Right_CapeC
							{
								OFFSET -15.715958 -8.608795 -6.935905
								CHANNELS 3 Xrotation Yrotation Zrotation
								JOINT newVegas:Right_CapeC1
								{
									OFFSET 0.000000 -8.688499 0.000000
									CHANNELS 3 Xrotation Yrotation Zrotation
									End Site
									{
										OFFSET 0.000000 8.688499 0.000000
									}
								}
							}
							JOINT newVegas:Right_Sleeve
							{
								OFFSET -0.267448 -0.649994 0.577675
								CHANNELS 3 Xrotation Yrotation Zrotation
								End Site
								{
									OFFSET 0.000000 15.991302 0.000000
								}
							}
						}
						JOINT newVegas:Right_CapeA
						{
							OFFSET -5.115540 -8.608795 -10.395824
							CHANNELS 3 Xrotation Yrotation Zrotation
							JOINT newVegas:Right_CapeA1
							{
								OFFSET 0.000000 -8.688499 0.000000
								CHANNELS 3 Xrotation Yrotation Zrotation
								End Site
								{
									OFFSET 0.000000 8.688499 0.000000
								}
							}
						}
						JOINT newVegas:Right_CapeB
						{
							OFFSET -26.118187 -8.608795 -7.079266
							CHANNELS 3 Xrotation Yrotation Zrotation
							JOINT newVegas:Right_CapeB1
							{
								OFFSET 0.000000 -8.688499 0.000000
								CHANNELS 3 Xrotation Yrotation Zrotation
								End Site
								{
									OFFSET 0.000000 8.688499 0.000000
								}
							}
						}
					}
				}
				JOINT newVegas:Left_Collar
				{
					OFFSET 18.625099 8.655502 8.828100
					CHANNELS 3 Xrotation Yrotation Zrotation
					JOINT newVegas:Left_Collar1
					{
						OFFSET 14.783401 10.540405 -1.259500
						CHANNELS 3 Xrotation Yrotation Zrotation
						End Site
						{
							OFFSET 0.000000 18.199875 0.000000
						}
					}
				}
				JOINT newVegas:Collar_Back
				{
					OFFSET 0.000000 15.630707 -20.132601
					CHANNELS 3 Xrotation Yrotation Zrotation
					End Site
					{
						OFFSET 0.000000 22.523010 0.000000
					}
				}
				JOINT newVegas:Left_Peck
				{
					OFFSET 17.239599 -5.132599 25.482599
					CHANNELS 3 Xrotation Yrotation Zrotation
					End Site
					{
						OFFSET 0.000000 22.523010 0.000000
					}
				}
				JOINT newVegas:Right_Peck
				{
					OFFSET -17.239599 -5.132202 25.482599
					CHANNELS 3 Xrotation Yrotation Zrotation
					End Site
					{
						OFFSET 0.000000 22.523010 0.000000
					}
				}
				JOINT newVegas:Right_Collar
				{
					OFFSET -18.625099 8.655792 8.828100
					CHANNELS 3 Xrotation Yrotation Zrotation
					JOINT newVegas:Right_Collar1
					{
						OFFSET -14.783401 10.539993 -1.259500
						CHANNELS 3 Xrotation Yrotation Zrotation
						End Site
						{
							OFFSET 0.000000 18.199631 0.000000
						}
					}
				}
			}
		}
		JOINT newVegas:Belly
		{
			OFFSET 0.000000 -6.540398 9.014299
			CHANNELS 3 Xrotation Yrotation Zrotation
			End Site
			{
				OFFSET 0.000000 11.566666 0.000000
			}
		}
	}
	JOINT newVegas:ElvisFacialAnim_Joint
	{
		OFFSET 1.000000 -95.330101 -8.825800
		CHANNELS 3 Xrotation Yrotation Zrotation
		End Site
		{
			OFFSET 0.000000 35.315800 0.000000
		}
	}
}
MOTION
Frames: 4
Frame Time: 0.016667
-0.031626 133.559479 4.652096 -1.011406 1.574545 0.837726 0.000000 -0.000000 0.000000 -33.595856 8.709193 3.768310 43.309167 14.387734 1.452059 41.792702 2.535362 8.291205 0.000001 0.000001 0.000000 0.000000 0.000001 -0.000000 -11.028070 -6.941955 -6.611097 22.063574 -19.414297 1.569015 52.639353 0.362730 1.060453 -0.000000 0.000000 -0.000004 0.000000 0.000001 -0.000001 -2.805794 -0.008241 -0.516978 -5.611653 -0.102272 -0.620860 -5.611649 -0.102272 -0.620859 -5.558589 0.078776 -0.525492 -5.558582 0.078775 -0.525492 -0.000000 0.000000 0.000000 -5.558575 0.078775 -0.525492 -5.558527 0.078779 -0.525494 0.000005 0.000000 0.000000 -0.000000 0.000000 0.000000 7.248321 6.365627 32.385154 -52.895314 -36.819887 5.857840 -23.466848 -23.506880 1.478701 -3.826429 -2.003293 0.833594 -23.505068 8.724627 4.055176 -11.818393 8.158618 13.633636 0.000003 -0.000001 -0.000001 -0.793882 -9.944885 -73.989868 -8.742873 -2.825258 -82.562357 -0.000000 0.000000 0.000001 -7.057139 -4.106585 -72.543972 -5.071203 -4.491870 -69.918434 -0.000001 0.000002 0.000001 -10.868842 6.242568 -70.785649 -0.409559 -6.819481 -77.462466 -0.000000 0.000001 -0.000001 -15.058351 6.364058 -69.029075 0.828468 -8.182916 -68.648633 -0.000001 -0.000003 -0.000002 0.000000 0.000000 0.000001 0.000000 0.000000 0.000001 0.000000 0.000000 0.000001 -0.000000 0.000000 -0.000001 -0.000000 -0.000001 -0.000000 -0.000000 0.000000 -0.000001 -0.000002 -0.000001 -0.000000 2.277537 -6.651283 -36.122576 -64.303861 35.763888 7.685051 -24.527665 16.757145 0.686871 10.834989 10.092836 2.136001 -17.327309 6.468907 -26.575938 3.045285 -20.332853 1.155714 0.000002 0.000000 -0.000000 -8.189423 4.700909 83.344304 -5.502021 0.854510 81.248905 0.000001 -0.000001 0.000000 -13.105706 1.845248 86.654938 -5.617206 1.089133 83.764573 0.000001 -0.000000 0.000000 -13.657540 -7.092635 77.657844 -0.194390 7.087310 77.421328 0.000001 0.000002 0.000001 -17.941838 -11.668171 76.734839 1.092278 11.886557 73.232851 0.000000 0.000003 0.000002 -0.000000 0.000000 0.000000 -0.000000 0.000000 0.000000 -0.000001 0.000000 0.000001 0.000001 -0.000001 0.000001 0.000001 0.000000 -0.000000 0.000001 -0.000001 0.000001 0.000001 -0.000000 -0.000000 -0.000001 0.000000 0.000000 -0.000001 0.000000 0.000000 -0.000001 0.000000 0.000000 -0.000001 0.000000 0.000000 -0.000001 0.000000 0.000000 -0.000001 0.000000 0.000000 -0.000001 0.000000 0.000000 0.000000 -0.000000 -0.000000 0.000000 -0.000000 0.000000 
0.193434 133.897110 4.253862 -0.858212 1.405249 0.759006 -0.000000 0.000000 0.000000 -34.846505 8.421105 3.566860 44.359811 10.236864 1.236032 42.045480 2.007392 4.337756 -0.000001 0.000002 -0.000000 -0.000001 -0.000001 -0.000000 -12.931553 -6.601242 -8.100970 30.012729 -18.119881 2.880335 47.252891 1.071022 3.850132 -0.000001 0.000001 -0.000002 0.000001 -0.000001 0.000000 -2.727175 0.121799 -0.379839 -5.454584 0.132121 -0.464096 -5.454584 0.132120 -0.464096 -5.790763 0.079957 -0.671771 -5.790749 0.079957 -0.671770 0.000000 0.000000 -0.000000 -5.790824 0.079957 -0.671771 -5.790641 0.079958 -0.671771 -0.000000 -0.000000 0.000000 0.000000 0.000000 -0.000000 7.446503 6.603388 32.450338 -54.448905 -35.183776 3.471678 -24.716308 -26.798657 2.385710 -2.089437 -0.267392 0.161403 -23.495531 8.735360 4.099167 -11.816006 8.165968 13.633303 0.000003 -0.000001 -0.000004 -0.798108 -9.946871 -74.031396 -8.750736 -2.825451 -82.619751 -0.000001 -0.000000 0.000000 -7.063508 -4.107389 -72.604310 -5.077545 -4.493794 -69.977317 -0.000001 0.000000 -0.000001 -10.882238 6.239423 -70.819028 -0.412558 -6.821500 -77.522866 -0.000002 -0.000001 0.000004 -15.087328 6.354708 -69.042264 0.827777 -8.184464 -68.710911 0.000003 -0.000005 0.000003 0.000000 0.000000 0.000000 0.000000 0.000000 0.000000 0.000000 -0.000000 0.000000 -0.000003 0.000000 0.000001 -0.000003 0.000000 0.000002 -0.000003 0.000000 0.000001 -0.000005 -0.000001 0.000002 2.388919 -6.364264 -35.754596 -64.004999 34.598214 7.322064 -24.670420 19.891099 0.003019 11.125942 8.673201 4.184494 -17.283799 6.418224 -26.304669 3.064545 -20.360331 1.166122 0.000002 -0.000003 -0.000001 -8.185373 4.699047 83.315754 -5.510751 0.853770 81.338121 0.000002 -0.000000 0.000000 -13.046158 1.831972 86.514359 -5.596006 1.090018 83.530509 -0.000000 -0.000001 -0.000000 -13.616075 -7.089666 77.376652 -0.170994 7.073168 77.042403 -0.000001 0.000002 0.000000 -17.831242 -11.644012 76.290870 1.111513 11.863468 72.805835 0.000003 -0.000002 0.000001 0.000000 0.000000 0.000000 0.000000 0.000000 -0.000000 0.000000 0.000000 0.000000 -0.000000 -0.000001 -0.000000 -0.000000 -0.000001 -0.000000 -0.000000 -0.000001 -0.000000 -0.000000 -0.000001 -0.000000 -0.000002 0.000000 -0.000000 -0.000002 0.000000 -0.000000 -0.000002 0.000000 -0.000000 -0.000002 0.000000 -0.000000 -0.000002 0.000000 -0.000000 -0.000002 0.000000 -0.000000 -0.000002 0.000000 -0.000000 0.000000 -0.000000 0.000000 -0.000000 0.000000 0.000000 
0.423098 134.354889 3.645566 -0.598408 0.900411 0.586900 -0.000000 -0.000000 -0.000000 -36.580113 8.185521 3.051116 46.011631 4.922676 0.915234 41.566383 1.976699 0.987297 -0.000001 0.000000 -0.000000 -0.000001 -0.000001 -0.000000 -14.811429 -6.158020 -9.608474 38.414555 -13.917276 4.185594 40.051321 1.866171 9.116669 0.000001 -0.000000 -0.000002 0.000000 0.000002 0.000001 -2.639903 0.330922 -0.161625 -5.279451 0.526127 -0.270102 -5.279449 0.526128 -0.270102 -5.885458 0.038023 -0.715305 -5.885462 0.038023 -0.715304 0.000002 -0.000000 0.000000 -5.885459 0.038022 -0.715305 -5.885477 0.038022 -0.715304 0.000000 0.000000 0.000000 0.000002 -0.000000 0.000000 7.870904 7.117305 32.582270 -57.915872 -34.418464 -0.704291 -26.183267 -29.980118 4.243749 1.291412 1.133863 -1.465701 -23.490571 8.740856 4.122863 -11.815353 8.169558 13.633530 0.000003 -0.000003 -0.000005 -0.800560 -9.948088 -74.055732 -8.755205 -2.825505 -82.652645 -0.000000 -0.000001 0.000000 -7.067262 -4.108013 -72.638037 -5.081113 -4.494842 -70.010593 -0.000002 0.000001 -0.000001 -10.889683 6.237607 -70.837825 -0.414242 -6.822646 -77.556750 -0.000001 0.000001 -0.000000 -15.103442 6.349317 -69.049647 0.827408 -8.185306 -68.745130 0.000001 -0.000003 -0.000003 -0.000000 0.000000 0.000000 -0.000000 0.000000 0.000000 -0.000000 -0.000000 0.000000 0.000002 -0.000001 0.000001 0.000002 -0.000002 -0.000000 0.000002 -0.000001 0.000001 0.000000 -0.000002 0.000001 2.490095 -6.094539 -35.392848 -63.972399 33.630718 7.079518 -24.776943 22.588520 -0.847465 11.676227 7.518029 6.413611 -17.301675 6.438985 -26.415053 3.056101 -20.348452 1.161296 0.000001 -0.000002 -0.000001 -8.187139 4.700021 83.323889 -5.507076 0.854114 81.300288 0.000001 0.000000 -0.000001 -13.070177 1.838108 86.568256 -5.604656 1.089760 83.625401 0.000001 -0.000000 -0.000000 -13.632584 -7.090486 77.490135 -0.180635 7.078981 77.198452 0.000001 0.000002 0.000001 -17.876728 -11.653751 76.473311 1.103589 11.872941 72.981541 0.000001 -0.000005 0.000001 0.000000 0.000000 -0.000000 0.000000 0.000000 -0.000000 0.000000 0.000001 -0.000000 0.000002 0.000001 -0.000001 0.000002 0.000002 -0.000001 0.000002 0.000001 -0.000001 0.000002 0.000002 -0.000001 -0.000000 -0.000000 -0.000000 -0.000000 -0.000000 -0.000000 -0.000000 -0.000000 -0.000000 -0.000000 -0.000000 -0.000000 -0.000000 -0.000000 -0.000000 -0.000000 -0.000000 -0.000000 -0.000000 -0.000000 -0.000000 0.000000 -0.000000 -0.000000 -0.000000 -0.000000 -0.000000 
0.619272 134.818024 2.867829 -0.253866 0.062138 0.436472 0.000000 -0.000000 0.000000 -38.640023 8.009472 2.319331 48.124642 -0.881721 0.523779 40.372599 2.267443 -1.984273 0.000000 0.000000 -0.000000 -0.000001 -0.000001 -0.000000 -15.545271 -5.647488 -11.146791 44.739109 -8.327809 5.200871 32.801662 2.448835 15.572100 -0.000002 -0.000000 0.000000 -0.000001 -0.000001 0.000001 -2.549189 0.600627 0.022721 -5.097276 1.039580 -0.044115 -5.097281 1.039579 -0.044115 -5.890011 -0.027373 -0.695702 -5.890016 -0.027372 -0.695702 0.000001 -0.000000 0.000000 -5.889991 -0.027373 -0.695701 -5.890004 -0.027371 -0.695702 0.000002 -0.000000 0.000000 0.000001 -0.000000 0.000000 8.458166 7.825094 32.740734 -62.473855 -34.058807 -5.800698 -27.569546 -32.988861 6.946100 5.686077 2.103947 -3.638413 -23.494008 8.736959 4.107988 -11.816700 8.166779 13.634035 0.000001 -0.000000 -0.000003 -0.799328 -9.947581 -74.043601 -8.752830 -2.825444 -82.635126 0.000000 -0.000000 -0.000003 -7.065404 -4.107950 -72.618844 -5.079133 -4.494277 -69.992172 0.000000 -0.000001 -0.000004 -10.885401 6.238502 -70.827354 -0.413287 -6.822007 -77.537619 -0.000003 -0.000001 0.000001 -15.094161 6.352056 -69.045467 0.827623 -8.184791 -68.724742 0.000002 -0.000003 -0.000004 0.000000 0.000000 -0.000000 0.000000 0.000000 -0.000000 0.000000 0.000000 -0.000000 -0.000001 -0.000003 -0.000000 -0.000001 -0.000003 0.000000 -0.000001 -0.000003 -0.000000 -0.000001 -0.000003 0.000001 2.587535 -5.828014 -35.023960 -64.095253 32.796314 6.908422 -24.852728 25.024775 -1.814144 12.403235 6.558989 8.612012 -17.355019 6.501251 -26.748638 3.032319 -20.314591 1.148220 0.000001 -0.000000 -0.000001 -8.192455 4.702502 83.357985 -5.496468 0.854976 81.191859 -0.000001 0.000000 -0.000000 -13.143539 1.854597 86.740117 -5.630820 1.088625 83.913846 0.000001 0.000000 0.000001 -13.683652 -7.094118 77.835921 -0.209489 7.096352 77.666327 0.000002 -0.000001 0.000001 -18.013917 -11.684623 77.021291 1.079834 11.901459 73.508162 -0.000000 0.000005 0.000000 0.000000 0.000000 0.000000 0.000000 -0.000000 0.000000 0.000000 0.000000 0.000000 -0.000000 -0.000002 0.000001 -0.000000 -0.000002 -0.000000 -0.000000 -0.000002 0.000001 -0.000000 -0.000002 0.000001 0.000001 -0.000000 -0.000000 0.000001 -0.000000 -0.000000 0.000001 -0.000000 -0.000000 0.000001 -0.000000 -0.000000 0.000001 -0.000000 -0.000000 0.000001 -0.000000 -0.000000 0.000001 -0.000000 -0.000000 0.000000 -0.000000 -0.000000 0.000000 -0.000000 0.000000 
